<svg width="612" height="192" viewBox="0 0 612 192" fill="none" xmlns="http://www.w3.org/2000/svg">
<g clip-path="url(#clip0_29_55)">
<path d="M131.5 39.8C131.4 38.9 130.6 38.5 130 38.5C129.4 38.5 116.3 37.5 116.3 37.5C116.3 37.5 107.2 28.4 106.1 27.5C105.1 26.5 103.2 26.8 102.4 27C102.3 27 100.4 27.6 97.3 28.6C94.2 19.7 88.9 11.6 79.4 11.6H78.5C75.9 8.20001 72.5 6.60001 69.7 6.60001C47.7 6.60001 37.1 34.1 33.8 48.1C25.2 50.8 19.1 52.6 18.4 52.9C13.6 54.4 13.5 54.5 12.9 59C12.4 62.4 -0.0999756 159.1 -0.0999756 159.1L97.2 177.3L150 165.9C150.1 165.7 131.6 40.7 131.5 39.8ZM91.9 30C89.5 30.7 86.6 31.6 83.7 32.6V30.8C83.7 25.4 83 21 81.7 17.5C86.7 18.1 89.8 23.6 91.9 30ZM75.6 18.6C76.9 22 77.8 26.8 77.8 33.4V34.4C72.4 36.1 66.7 37.8 60.8 39.7C64.1 27.1 70.4 20.9 75.6 18.6ZM69.2 12.4C70.2 12.4 71.2 12.8 72 13.4C64.9 16.7 57.4 25 54.3 41.8C49.6 43.3 45.1 44.6 40.8 46C44.4 33.2 53.4 12.4 69.2 12.4Z" fill="#95BF47"/>
<path d="M130 38.3C129.4 38.3 116.3 37.3 116.3 37.3C116.3 37.3 107.2 28.2 106.1 27.3C105.7 26.9 105.2 26.7 104.8 26.7L97.5 177.3L150.3 165.9C150.3 165.9 131.8 40.7 131.7 39.8C131.3 38.9 130.6 38.5 130 38.3Z" fill="#5E8E3E"/>
<path d="M79.4 67.5L73 86.8C73 86.8 67.2 83.7 60.3 83.7C50 83.7 49.5 90.2 49.5 91.8C49.5 100.6 72.5 104 72.5 124.7C72.5 141 62.2 151.5 48.3 151.5C31.5 151.5 23.1 141.1 23.1 141.1L27.6 126.3C27.6 126.3 36.4 133.9 43.8 133.9C48.7 133.9 50.7 130.1 50.7 127.3C50.7 115.8 31.9 115.3 31.9 96.3C31.9 80.4 43.3 65 66.4 65C75 64.9 79.4 67.5 79.4 67.5Z" fill="white"/>
<path d="M211.6 103.8C206.3 101 203.6 98.5 203.6 95.2C203.6 91 207.4 88.3 213.3 88.3C220.2 88.3 226.3 91.1 226.3 91.1L231.1 76.4C231.1 76.4 226.7 73 213.7 73C195.6 73 183 83.4 183 98C183 106.3 188.9 112.6 196.7 117.1C203.1 120.6 205.3 123.2 205.3 127C205.3 130.9 202.1 134.1 196.2 134.1C187.5 134.1 179.2 129.6 179.2 129.6L174.1 144.3C174.1 144.3 181.7 149.4 194.5 149.4C213.1 149.4 226.6 140.2 226.6 123.7C226.4 114.7 219.7 108.5 211.6 103.8ZM285.8 72.8C276.6 72.8 269.4 77.2 263.9 83.8L263.7 83.7L271.7 42.1H251L230.8 148.1H251.5L258.4 111.9C261.1 98.2 268.2 89.7 274.8 89.7C279.5 89.7 281.3 92.9 281.3 97.4C281.3 100.2 281.1 103.8 280.4 106.6L272.6 148.1H293.3L301.4 105.3C302.3 100.8 302.9 95.4 302.9 91.7C302.8 79.8 296.7 72.8 285.8 72.8ZM349.7 72.8C324.7 72.8 308.2 95.3 308.2 120.4C308.2 136.4 318.1 149.4 336.7 149.4C361.2 149.4 377.7 127.5 377.7 101.8C377.8 86.9 369.2 72.8 349.7 72.8ZM339.5 133.6C332.4 133.6 329.5 127.6 329.5 120C329.5 108.1 335.6 88.8 346.9 88.8C354.2 88.8 356.7 95.2 356.7 101.3C356.7 114 350.4 133.6 339.5 133.6ZM430.8 72.8C416.8 72.8 408.9 85.2 408.9 85.2H408.7L409.9 74.1H391.5C390.6 81.6 388.9 93.1 387.3 101.6L373 177.5H393.7L399.5 146.8H400C400 146.8 404.3 149.5 412.1 149.5C436.5 149.5 452.4 124.5 452.4 99.3C452.3 85.3 446 72.8 430.8 72.8ZM411 133.8C405.6 133.8 402.4 130.7 402.4 130.7L405.8 111.4C408.2 98.4 415 89.9 422.2 89.9C428.6 89.9 430.5 95.8 430.5 101.3C430.6 114.7 422.6 133.8 411 133.8ZM481.9 43.1C475.3 43.1 470 48.4 470 55.1C470 61.2 473.9 65.5 479.8 65.5H480C486.5 65.5 492 61.1 492.1 53.5C492.2 47.4 488.1 43.1 481.9 43.1ZM452.9 148H473.6L487.6 74.4H466.8M540.4 74.3H526L526.7 70.9C527.9 63.8 532.1 57.6 539.1 57.6C542.8 57.6 545.7 58.7 545.7 58.7L549.7 42.4C549.7 42.4 546.2 40.6 538.4 40.6C531.1 40.6 523.7 42.7 518.1 47.5C511 53.5 507.7 62.2 506.1 71L505.5 74.4H495.8L492.7 90.1H502.4L491.4 148.1H512.1L523.1 90.1H537.4L540.4 74.3ZM590.3 74.4C590.3 74.4 577.3 107.1 571.6 125H571.4C571 119.2 566.3 74.4 566.3 74.4H544.5L557 141.8C557.2 143.3 557.1 144.2 556.5 145.2C554.1 149.9 550 154.4 545.2 157.7C541.3 160.5 536.9 162.4 533.4 163.6L539.2 181.2C543.4 180.3 552.2 176.8 559.5 169.9C568.9 161.1 577.7 147.4 586.7 128.8L612 74.3H590.3V74.4Z" fill="white"/>
</g>
<defs>
<clipPath id="clip0_29_55">
<rect width="612" height="192" fill="white"/>
</clipPath>
</defs>
</svg>
