<svg width="108" height="20" viewBox="0 0 108 20" fill="none" xmlns="http://www.w3.org/2000/svg">
<path d="M0.000132811 16V15.55C0.792133 15.532 1.49413 15.136 2.08813 13.75L6.71413 3.022H7.84813L12.4561 13.768C12.9961 15.028 13.6621 15.532 14.6341 15.55V16H8.92813V15.55C10.8001 15.532 11.1601 15.136 10.6561 13.93L9.61213 11.482H3.90613L2.86213 13.93C2.35813 15.154 2.68213 15.532 4.46413 15.55V16H0.000132811ZM4.21213 10.744H9.30613L6.75013 4.732L4.21213 10.744ZM18.5157 8.944C19.0017 7.684 20.2257 6.892 21.6117 6.892C22.9077 6.892 23.9697 7.648 24.2217 9.052C24.8337 7.648 26.0397 6.892 27.3717 6.892C29.0097 6.892 30.0537 8.062 30.0537 9.88V14.434C30.0537 15.046 30.3057 15.406 31.4937 15.55V16H27.1737V15.55C28.2717 15.424 28.5237 15.082 28.5237 14.434V9.934C28.5237 8.62 27.6777 7.918 26.6517 7.918C25.4097 7.918 24.2937 8.962 24.2937 10.33V14.398C24.2937 15.136 24.6537 15.424 25.6257 15.55V16H21.3597V15.55C22.4217 15.424 22.7457 15.118 22.7457 14.398V9.934C22.7457 8.602 21.8997 7.918 20.8917 7.918C19.6317 7.918 18.5157 8.98 18.5157 10.33V14.398C18.5157 15.1 18.8577 15.424 19.9017 15.55V16H15.5097V15.55C16.6977 15.424 16.9677 15.046 16.9677 14.398V8.764C16.9677 8.26 16.7337 8.008 16.1577 8.008H15.5457V7.558L18.0657 6.982H18.5157V8.944ZM37.6269 16.144C36.5289 16.144 35.4669 15.694 34.7829 14.938L34.0089 16.054H33.5409V4.696C33.5409 4.192 33.3249 3.904 32.7489 3.904H32.1189V3.454L34.6389 2.878H35.0889V9.214C35.5029 7.882 36.6909 6.892 38.2749 6.892C40.4889 6.892 41.8929 8.836 41.8929 11.482C41.8929 14.29 40.0569 16.144 37.6269 16.144ZM35.0889 10.888V12.58C35.0889 14.344 36.0789 15.514 37.4829 15.514C39.1389 15.514 40.2369 13.894 40.2369 11.608C40.2369 9.412 39.2109 7.864 37.6269 7.864C36.1149 7.864 35.0889 9.376 35.0889 10.888ZM48.0499 16.144C45.4939 16.144 43.7839 14.344 43.7839 11.716C43.7839 8.728 45.7279 6.892 48.1939 6.892C50.5339 6.892 51.7579 8.566 51.6319 10.69H45.3679C45.3499 10.816 45.3499 10.96 45.3499 11.104C45.3499 13.48 46.5919 15.01 48.6079 15.01C49.9939 15.01 50.9299 14.236 51.3799 12.886H51.8299C51.3799 15.01 50.1019 16.144 48.0499 16.144ZM45.4399 10.114H49.2919C49.7239 10.114 49.9579 9.862 49.9579 9.412C49.9579 8.332 49.2379 7.468 48.0679 7.468C46.7179 7.468 45.7279 8.512 45.4399 10.114ZM56.3394 8.89C56.7534 7.576 57.6894 6.892 58.5534 6.892C59.3454 6.892 59.8854 7.396 59.8854 7.954C59.8854 8.422 59.5434 8.782 59.0754 8.782C58.7514 8.782 58.5354 8.584 58.4274 8.386C58.3194 8.188 58.1934 7.99 57.8874 7.99C57.1134 7.99 56.3394 9.286 56.3394 10.582V14.416C56.3394 15.19 56.8974 15.424 58.1214 15.55V16H53.4594V15.55C54.4494 15.442 54.7914 15.1 54.7914 14.416V8.764C54.7914 8.26 54.5574 8.008 53.9814 8.008H53.3694V7.558L55.8894 6.982H56.3394V8.89ZM65.6797 16V15.55C67.1017 15.424 67.5697 14.974 67.5697 14.092V4.93C67.5697 4.048 67.1017 3.598 65.6797 3.472V3.022H71.1697V3.472C69.7297 3.598 69.2797 4.066 69.2797 4.93V15.37L73.4917 15.262C74.8057 15.208 75.6157 14.398 76.2097 12.22H76.6777L76.1197 16H65.6797ZM82.4221 16.144C79.8661 16.144 78.1561 14.344 78.1561 11.716C78.1561 8.728 80.1001 6.892 82.5661 6.892C84.9061 6.892 86.1301 8.566 86.0041 10.69H79.7401C79.7221 10.816 79.7221 10.96 79.7221 11.104C79.7221 13.48 80.9641 15.01 82.9801 15.01C84.3661 15.01 85.3021 14.236 85.7521 12.886H86.2021C85.7521 15.01 84.4741 16.144 82.4221 16.144ZM79.8121 10.114H83.6641C84.0961 10.114 84.3301 9.862 84.3301 9.412C84.3301 8.332 83.6101 7.468 82.4401 7.468C81.0901 7.468 80.1001 8.512 79.8121 10.114ZM90.7477 8.944C91.2877 7.63 92.5117 6.892 93.8617 6.892C95.5717 6.892 96.7057 8.098 96.7057 9.916V14.434C96.7057 15.082 97.0297 15.424 98.1817 15.55V16H93.7537V15.55C94.8337 15.424 95.1577 15.118 95.1577 14.434V10.042C95.1577 8.728 94.4737 7.954 93.1597 7.954C92.0797 7.954 90.7477 8.908 90.7477 10.438V14.434C90.7477 15.118 91.1077 15.424 92.1697 15.55V16H87.7417V15.55C88.8937 15.424 89.1997 15.118 89.1997 14.434V8.764C89.1997 8.26 88.9657 8.008 88.3897 8.008H87.7777V7.558L90.2977 6.982H90.7477V8.944ZM102.901 16.144C102.289 16.144 101.785 16.018 101.335 15.91C100.831 15.784 100.399 15.694 99.9671 15.802L99.5891 13.174H100.039C100.561 14.704 101.461 15.586 102.847 15.586C103.945 15.586 104.791 14.992 104.791 14.002C104.791 11.626 99.7151 12.616 99.7151 9.43C99.7151 7.63 101.335 6.892 102.793 6.892C103.495 6.892 103.999 7.036 104.413 7.162C104.827 7.288 105.151 7.378 105.511 7.306L105.673 9.646H105.205C104.917 8.224 103.945 7.45 102.757 7.45C101.857 7.45 100.993 7.954 100.993 8.872C100.993 11.14 106.123 10.15 106.123 13.426C106.123 15.082 104.809 16.144 102.901 16.144Z" fill="white"/>
</svg>
