<svg width="1990" height="540" viewBox="0 0 1990 540" fill="none" xmlns="http://www.w3.org/2000/svg">
<path d="M0 292.68H39.0808V0H0V292.68Z" fill="#D9D9D9"/>
<path d="M76.1787 292.695H115.229V74.6194H76.1787V292.695Z" fill="#D9D9D9"/>
<path d="M76.1943 37.3174H115.244V9.15527e-05H76.1943V37.3174Z" fill="#D9D9D9"/>
<path d="M1797.27 202.946C1804.61 257.259 1851.06 299.184 1906.95 300.313V260.738C1868.64 260.295 1837.66 229.996 1835.34 191.84H1835.39H1906.95V152.798H1836.11V50.8545H1797.04V193.411L1797.27 202.946Z" fill="#D9D9D9"/>
<path d="M1352.4 153.219C1364.12 128.748 1388.77 112.393 1417.46 112.393C1438.54 112.393 1457.52 121.44 1470.73 135.949L1519.36 135.842C1512.52 122.172 1502.96 110.044 1491.46 100.188C1471.82 83.5583 1446.32 73.4127 1418.57 73.4127C1356.41 73.4127 1305.98 123.866 1305.98 185.944C1305.98 188.126 1306.03 190.323 1306.18 192.276L1489.9 192.139C1486.41 229.303 1455.24 259.008 1417.46 259.008C1387.23 259.008 1361.23 240.257 1350.43 213.513L1309.38 213.665C1321.69 262.471 1365.92 298.659 1418.57 298.659C1480.73 298.659 1531.1 248.191 1531.1 185.944C1531.1 174.548 1529.38 163.563 1526.28 153.219H1352.4Z" fill="#D9D9D9"/>
<path d="M991.299 99.2724V74.9841H952.127V293.136H991.299V171.359C993.496 141.243 1027.77 111.783 1063.21 111.783L1063.24 72.955C1035.84 73.0312 1010.73 82.9175 991.299 99.2724Z" fill="#D9D9D9"/>
<path d="M1173.33 259.078C1133.27 259.078 1100.73 226.124 1100.73 185.709C1100.73 145.203 1133.27 112.387 1173.33 112.387C1213.43 112.387 1245.92 145.203 1245.92 185.709C1245.92 226.124 1213.43 259.078 1173.33 259.078ZM1247.23 100.258C1227.63 83.5671 1202.14 73.4064 1174.34 73.4064C1112.22 73.4064 1061.81 123.905 1061.81 186.014C1061.81 248.184 1112.22 298.653 1174.34 298.653C1236.57 298.653 1286.94 248.184 1286.94 186.014C1286.94 151.672 1271.59 120.915 1247.23 100.258Z" fill="#D9D9D9"/>
<path d="M579.728 97.6581C603.905 118.315 619.19 149.057 619.19 183.445H619.159V293.139H580.079V183.445H580.002C580.002 142.985 547.557 110.153 507.47 110.153C469.213 110.153 437.881 140.025 435.12 177.938L435.227 178.38V292.697H396.146V74.6056H435.227V97.2462L435.151 97.3529C454.691 80.7692 479.845 70.8372 507.363 70.8372C534.942 70.8372 560.233 80.9523 579.728 97.6581Z" fill="#D9D9D9"/>
<path d="M248.261 256.351C208.189 256.351 175.713 223.489 175.713 183.136C175.713 142.599 208.189 109.752 248.261 109.752C288.333 109.752 320.93 142.599 320.93 183.136C320.93 223.489 288.333 256.351 248.261 256.351ZM361.933 183.456C361.933 179.367 361.704 175.218 361.247 171.205L361.323 74.3877H322.242V97.6537C302.534 80.9174 277.152 70.8329 249.435 70.8329C187.214 70.8329 136.77 121.255 136.77 183.456C136.77 245.626 187.214 296.079 249.435 296.079C277.152 296.079 302.534 285.964 322.166 269.274V280.06C322.166 320.49 289.126 353.261 248.261 353.261C222.466 353.261 199.753 340.201 186.559 320.261L144.488 320.337C161.832 361.88 201.782 390.975 248.261 390.975C310.741 390.975 361.201 338.767 361.201 274.476V195.692C361.704 191.756 361.933 187.606 361.933 183.456Z" fill="#D9D9D9"/>
<path d="M864.789 192.435C865.018 189.414 865.125 186.47 865.125 183.449C865.125 149.061 849.749 118.319 825.389 97.6617C805.772 80.9559 780.344 70.8409 752.505 70.8409C690.345 70.8409 639.946 121.248 639.946 183.449C639.946 245.619 690.345 296.087 752.505 296.087C804.17 296.087 847.705 261.196 860.961 213.901L818.707 213.596C807.313 239.059 781.93 256.726 752.505 256.726C715.377 256.726 684.823 228.623 680.491 192.282V192.359H824.535L864.789 192.435ZM686.379 153.226C697.774 127.824 723.096 110.157 752.505 110.157C781.884 110.157 807.191 127.763 818.677 153.104" fill="#D9D9D9"/>
<path d="M1772.99 191.986C1773.3 189.041 1773.33 188.812 1773.33 185.868C1773.33 151.48 1757.95 120.692 1733.69 100.066C1714.02 83.375 1688.6 73.2905 1660.79 73.2905C1598.64 73.2905 1548.21 123.683 1548.21 185.868C1548.21 248.114 1598.64 298.506 1660.79 298.506C1712.45 298.506 1755.96 263.676 1769.24 216.228L1726.94 216.015C1715.59 241.401 1690.21 259.221 1660.79 259.221C1623.77 259.221 1593.12 228.25 1588.82 191.986H1732.77H1772.99ZM1594.71 155.63C1606.12 130.289 1631.45 112.576 1660.79 112.576C1690.17 112.576 1715.47 130.182 1726.88 155.63L1726.78 155.34H1594.45L1594.71 155.63Z" fill="#D9D9D9"/>
<path d="M1956.04 116.178C1937.38 116.178 1922.07 100.973 1922.07 82.2679C1922.07 63.5221 1937.37 48.2984 1956.04 48.2984C1974.77 48.2984 1990 63.535 1990 82.2679C1990 100.96 1974.76 116.178 1956.04 116.178ZM1956.04 109.056C1970.93 109.056 1982.88 97.1093 1982.88 82.2679C1982.88 67.3754 1970.93 55.4498 1956.04 55.4498C1941.23 55.4498 1929.19 67.3884 1929.19 82.2679C1929.19 97.0963 1941.23 109.056 1956.04 109.056Z" fill="#D9D9D9"/>
<path d="M1964.35 73.707C1964.28 72.0441 1963.71 70.7168 1962.69 69.6641C1961.52 68.6572 1960.13 68.1078 1958.47 68.1078H1948.79V79.3366H1958.19C1959.88 79.3366 1961.41 78.8332 1962.61 77.7805C1963.71 76.8041 1964.28 75.492 1964.35 73.707ZM1964.28 100.024L1956.57 84.1729H1948.79V100.024H1943.42V63.18H1958.68C1961.87 63.2411 1964.51 64.187 1966.53 66.155C1968.53 68.1079 1969.55 70.6405 1969.63 73.707C1969.51 78.4671 1967.1 81.7624 1962.43 83.5779L1970.88 100.024H1964.28Z" fill="#D9D9D9"/>
<path d="M773.612 427.603V435.723H742.06V458.691H772.684V466.811H742.06V496.855H773.612V504.975H733.476V427.603H773.612ZM848.249 438.391L841.405 442.915C840.168 440.517 838.66 438.584 836.881 437.115C834.561 435.336 831.661 434.447 828.181 434.447C824.314 434.447 821.182 435.568 818.785 437.811C816.388 439.976 815.189 442.837 815.189 446.395C815.189 449.024 816.156 451.267 818.089 453.123C819.636 454.669 822.342 456.293 826.209 457.995L833.633 461.243C839.124 463.64 843.106 466.076 845.581 468.551C849.293 472.263 851.149 476.941 851.149 482.587C851.149 489.624 848.829 495.347 844.189 499.755C839.549 504.163 833.71 506.367 826.673 506.367C819.713 506.367 814.106 504.279 809.853 500.103C806.373 496.7 803.976 492.137 802.661 486.415L811.013 484.095C811.554 487.961 813.101 491.248 815.653 493.955C818.514 496.816 822.226 498.247 826.789 498.247C831.738 498.247 835.566 496.777 838.273 493.839C840.98 490.823 842.333 487.188 842.333 482.935C842.333 479.223 841.057 476.207 838.505 473.887C837.036 472.495 833.942 470.716 829.225 468.551L822.265 465.303C817.548 463.137 814.106 461.011 811.941 458.923C808.384 455.52 806.605 451.305 806.605 446.279C806.605 440.324 808.616 435.529 812.637 431.895C816.736 428.183 821.956 426.327 828.297 426.327C833.092 426.327 837.229 427.487 840.709 429.807C843.88 431.895 846.393 434.756 848.249 438.391ZM917.221 435.723H898.429V504.975H889.845V435.723H871.053V427.603H917.221V435.723ZM1006.73 494.883C998.996 502.539 989.484 506.367 978.193 506.367C966.903 506.367 957.352 502.539 949.541 494.883C941.808 487.227 937.941 477.715 937.941 466.347C937.941 454.901 941.847 445.389 949.657 437.811C957.468 430.155 966.98 426.327 978.193 426.327C989.407 426.327 998.919 430.155 1006.73 437.811C1014.54 445.389 1018.45 454.901 1018.45 466.347C1018.45 477.715 1014.54 487.227 1006.73 494.883ZM1000.47 443.727C994.356 437.54 986.932 434.447 978.193 434.447C969.455 434.447 962.031 437.54 955.921 443.727C949.812 449.913 946.757 457.453 946.757 466.347C946.757 475.24 949.812 482.78 955.921 488.967C962.031 495.153 969.455 498.247 978.193 498.247C986.932 498.247 994.356 495.153 1000.47 488.967C1006.57 482.78 1009.63 475.24 1009.63 466.347C1009.63 457.453 1006.57 449.913 1000.47 443.727ZM1060.2 504.975H1051.62V424.355L1111.94 487.575V427.603H1120.52V508.455L1060.2 445.235V504.975ZM1157.83 427.603H1166.41V504.975H1157.83V427.603ZM1255.51 504.975L1246.46 483.167H1213.52L1204.24 504.975H1194.73L1230.34 423.891L1265.02 504.975H1255.51ZM1216.88 475.047H1243.1L1230.11 444.075L1216.88 475.047Z" fill="#D9D9D9"/>
</svg>
