<svg width="2500" height="491" viewBox="0 0 2500 491" fill="none" xmlns="http://www.w3.org/2000/svg">
<g clip-path="url(#clip0_18_48)">
<path d="M0.243958 367.557H49.3302V0.00416585H0.243958V367.557ZM95.9253 367.578H144.974V93.715H95.9253V367.578ZM95.9461 46.8659H144.995V0H95.9461V46.8659ZM2257.68 254.867C2266.9 323.074 2325.24 375.731 2395.44 377.147V327.449C2347.33 326.895 2308.42 288.844 2305.51 240.924H2395.44V191.892H2306.46V63.875H2257.4V242.898L2257.68 254.867ZM1698.91 192.421C1713.62 161.689 1744.59 141.147 1780.63 141.147C1807.1 141.147 1830.94 152.512 1847.53 170.733L1908.61 170.596C1900.02 153.487 1888.11 138.265 1873.57 125.821C1848.91 104.938 1816.87 92.1987 1782.02 92.1987C1703.95 92.1987 1640.61 155.557 1640.61 233.517C1640.61 236.258 1640.67 239.016 1640.86 241.47L1871.61 241.295C1867.23 287.969 1828.08 325.274 1780.63 325.274C1742.65 325.274 1710 301.724 1696.43 268.139L1644.88 268.331C1660.34 329.623 1715.88 375.068 1782.02 375.068C1860.1 375.068 1923.36 311.689 1923.36 233.517C1923.36 219.203 1921.2 205.41 1917.31 192.421H1698.91ZM1245.35 124.671V94.1691H1196.15V368.132H1245.35V215.204C1248.11 177.378 1291.16 140.385 1335.67 140.385L1335.71 91.6238C1302.64 91.6638 1270.64 103.366 1245.35 124.671ZM1473.99 325.361C1423.67 325.361 1382.81 283.974 1382.81 233.221C1382.81 182.356 1423.67 141.143 1473.99 141.143C1524.35 141.143 1565.17 182.352 1565.17 233.221C1565.17 283.974 1524.35 325.361 1473.99 325.361ZM1566.81 125.905C1541.28 104.12 1508.81 92.163 1475.25 92.1862C1397.23 92.1862 1333.91 155.603 1333.91 233.6C1333.91 311.677 1397.23 375.056 1475.25 375.056C1553.42 375.056 1616.68 311.677 1616.68 233.6C1616.68 190.471 1597.41 151.85 1566.82 125.905M728.402 122.647C743.981 135.936 756.483 152.454 765.041 171.056C773.6 189.658 778.011 209.899 777.967 230.376H777.93V368.136H728.843V230.38H728.748C728.748 179.569 687.997 138.336 637.645 138.336C589.591 138.336 550.241 175.849 546.771 223.461L546.904 224.019V367.578H497.818V93.6942H546.904V122.126L546.808 122.264C571.353 101.434 602.947 88.9618 637.511 88.9618C672.15 88.9618 703.915 101.668 728.402 122.647ZM312.071 321.937C261.739 321.937 220.947 280.666 220.947 229.988C220.947 179.082 261.739 137.831 312.071 137.831C362.402 137.831 403.344 179.082 403.344 229.988C403.344 280.666 362.402 321.937 312.071 321.937ZM454.847 230.393C454.847 225.256 454.555 220.045 453.985 215.008L454.08 93.4193H404.994V122.639C380.236 101.622 348.355 88.9576 313.545 88.9576C235.394 88.9576 172.031 152.279 172.031 230.388C172.031 308.469 235.394 371.827 313.545 371.827C348.355 371.827 380.241 359.122 404.898 338.167V351.71C404.898 402.484 363.398 443.638 312.071 443.638C279.669 443.638 251.141 427.237 234.569 402.196L181.725 402.292C203.513 454.461 253.69 491 312.071 491C390.547 491 453.926 425.438 453.926 344.695V245.756C454.559 240.815 454.847 235.604 454.847 230.393ZM1086.45 241.669C1086.74 237.874 1086.87 234.175 1086.87 230.38C1086.87 187.197 1067.56 148.592 1036.96 122.651C1011.44 100.866 978.973 88.9187 945.418 88.966C867.341 88.966 804.037 152.27 804.037 230.384C804.037 308.456 867.341 371.836 945.418 371.836C1010.31 371.836 1064.99 328.019 1081.64 268.627L1028.57 268.243C1014.26 300.221 982.377 322.408 945.418 322.408C898.781 322.408 860.405 287.115 854.965 241.478V241.574H1035.89L1086.45 241.669ZM862.359 192.429C876.673 160.527 908.475 138.34 945.418 138.34C982.319 138.34 1014.1 160.452 1028.53 192.275M2227.19 241.103C2227.57 237.408 2227.61 237.12 2227.61 233.421C2227.61 190.238 2208.3 151.57 2177.81 125.667C2153.12 104.709 2121.18 92.0445 2086.25 92.0445C2008.19 92.0445 1944.86 155.324 1944.86 233.421C1944.86 311.593 2008.19 374.877 2086.25 374.877C2151.14 374.877 2205.79 331.135 2222.47 271.547L2169.35 271.28C2155.09 303.162 2123.21 325.541 2086.25 325.541C2039.75 325.541 2001.26 286.648 1995.86 241.103H2176.66H2227.19ZM2003.25 195.445C2017.58 163.622 2049.41 141.381 2086.25 141.381C2123.15 141.381 2154.94 163.489 2169.27 195.445L2169.14 195.083H2002.93L2003.25 195.445Z" fill="white"/>
<path d="M2457.1 145.901C2433.66 145.901 2414.44 126.809 2414.44 103.317C2414.44 79.776 2433.66 60.6589 2457.1 60.6589C2480.62 60.6589 2499.76 79.7927 2499.76 103.317C2499.76 126.792 2480.61 145.901 2457.1 145.901ZM2457.1 136.957C2461.52 136.974 2465.91 136.116 2470 134.432C2474.1 132.748 2477.82 130.272 2480.95 127.146C2484.08 124.02 2486.57 120.306 2488.26 116.216C2489.95 112.127 2490.82 107.743 2490.81 103.317C2490.83 98.8877 2489.96 94.4993 2488.27 90.4048C2486.58 86.3103 2484.1 82.5906 2480.96 79.46C2477.83 76.3293 2474.11 73.8496 2470.01 72.1636C2465.92 70.4777 2461.53 69.6187 2457.1 69.6363C2438.5 69.6363 2423.38 84.6334 2423.38 103.317C2423.38 121.939 2438.49 136.957 2457.1 136.957Z" fill="black"/>
<path d="M2467.54 92.5652C2467.45 90.4781 2466.74 88.8117 2465.45 87.487C2463.99 86.2016 2462.1 85.5055 2460.15 85.5332H2448V99.6346H2459.8C2461.93 99.6346 2463.84 99.0056 2465.36 97.6808C2466.74 96.4561 2467.45 94.8064 2467.54 92.5652ZM2467.45 125.617L2457.77 105.708H2448V125.617H2441.25V79.3469H2460.42C2464.42 79.4219 2467.73 80.6092 2470.28 83.0837C2472.79 85.5332 2474.07 88.7159 2474.17 92.5652C2474.02 98.5432 2470.99 102.684 2465.13 104.963L2475.74 125.617H2467.45Z" fill="black"/>
</g>
<defs>
<clipPath id="clip0_18_48">
<rect width="2500" height="491" fill="white"/>
</clipPath>
</defs>
</svg>
